<svg xmlns="http://www.w3.org/2000/svg" width="22.797" height="11.987" viewBox="0 0 22.797 11.987">
  <g id="car_2_" data-name="car (2)" transform="translate(0 -115.703)">
    <g id="Group_43594" data-name="Group 43594" transform="translate(0 115.703)">
      <path id="Path_582716" data-name="Path 582716" d="M21.61,120.314l-1.831-.836L18.163,116.9a2.546,2.546,0,0,0-2.172-1.2H9.1a2.569,2.569,0,0,0-2.041,1L4.975,119.44l-3.48.953A2.041,2.041,0,0,0,0,122.36v1.331a2.04,2.04,0,0,0,2.023,2.055h.3a2.594,2.594,0,0,0,5.022,0h7.848a2.594,2.594,0,0,0,5.022,0h.561a2.04,2.04,0,0,0,2.023-2.055v-1.518A2.036,2.036,0,0,0,21.61,120.314ZM4.83,126.747a1.658,1.658,0,1,1,1.658-1.658A1.659,1.659,0,0,1,4.83,126.747Zm12.87,0a1.658,1.658,0,1,1,1.658-1.658A1.659,1.659,0,0,1,17.7,126.747Zm3.074-1.934h-.5a2.594,2.594,0,0,0-5.157,0H7.409a2.594,2.594,0,0,0-5.157,0H2.018A1.1,1.1,0,0,1,.93,123.692V122.36a1.1,1.1,0,0,1,.808-1.07l3.639-1a.456.456,0,0,0,.248-.168L7.8,117.273a1.651,1.651,0,0,1,1.3-.635h6.886a1.609,1.609,0,0,1,1.383.757l1.691,2.7a.461.461,0,0,0,.2.178l1.953.892a1.1,1.1,0,0,1,.64,1.009v1.518h0A1.1,1.1,0,0,1,20.774,124.813Z" transform="translate(0 -115.703)" fill="#fff"/>
    </g>
  </g>
</svg>
