<svg id="clock_18_" data-name="clock (18)" xmlns="http://www.w3.org/2000/svg" width="13.73" height="13.73" viewBox="0 0 13.73 13.73">
  <g id="Group_43591" data-name="Group 43591" transform="translate(6.333 3.185)">
    <g id="Group_43590" data-name="Group 43590">
      <path id="Path_582714" data-name="Path 582714" d="M239.147,123.671l-1.914-1.436v-2.925a.532.532,0,0,0-1.064,0V122.5a.531.531,0,0,0,.213.425l2.127,1.6a.532.532,0,0,0,.638-.851Z" transform="translate(-236.169 -118.779)" fill="#fff"/>
    </g>
  </g>
  <g id="Group_43593" data-name="Group 43593">
    <g id="Group_43592" data-name="Group 43592">
      <path id="Path_582715" data-name="Path 582715" d="M6.865,0A6.865,6.865,0,1,0,13.73,6.865,6.872,6.872,0,0,0,6.865,0Zm0,12.666a5.8,5.8,0,1,1,5.8-5.8A5.809,5.809,0,0,1,6.865,12.666Z" fill="#fff"/>
    </g>
  </g>
</svg>
