<svg xmlns="http://www.w3.org/2000/svg" xmlns:xlink="http://www.w3.org/1999/xlink" width="1248.464" height="118.849" viewBox="0 0 1248.464 118.849">
  <defs>
    <linearGradient id="linear-gradient" x1="0.5" x2="0.5" y2="1" gradientUnits="objectBoundingBox">
      <stop offset="0" stop-color="#fcfcfc"/>
      <stop offset="1" stop-color="#7e7e7e" stop-opacity="0"/>
    </linearGradient>
  </defs>
  <path id="Path_582712" data-name="Path 582712" d="M112.569-42.861v22.294q0,8.949-4.553,14.287Q102.992,0,92.316,0H31.871q-10.2,0-15.7-6.594a20.64,20.64,0,0,1-5.024-13.973V-98.282q0-8.792,5.181-14.444,5.338-6.123,15.072-6.123H92.316q10.048,0,15.386,5.966,4.867,5.181,4.867,14.6v17.9a4.748,4.748,0,0,1-.785,2.826,2.889,2.889,0,0,1-2.512,1.413h-17.9A2.984,2.984,0,0,1,88.862-77.4a4.471,4.471,0,0,1-.785-2.669V-94.985q0-8.164-7.379-8.164H43.018a6.708,6.708,0,0,0-5.024,2.355,8.427,8.427,0,0,0-2.355,5.966v70.493a8.611,8.611,0,0,0,2.355,5.809,7.306,7.306,0,0,0,5.5,2.826H80.7a7.036,7.036,0,0,0,5.652-2.2,9.014,9.014,0,0,0,1.727-5.966v-19a3.751,3.751,0,0,1,.942-2.512,3.142,3.142,0,0,1,2.512-1.1h17.741a2.975,2.975,0,0,1,2.355,1.1A3.751,3.751,0,0,1,112.569-42.861ZM252.142-98.282v77.715q0,9.106-5.024,14.6Q241.937,0,231.889,0H170.973q-10.048,0-15.229-5.966-5.024-5.5-5.024-14.6V-98.282q0-9.106,5.024-14.6,5.495-5.966,15.229-5.966h60.916q9.734,0,15.229,5.966Q252.142-107.388,252.142-98.282ZM227.65-23.864V-94.985a8.4,8.4,0,0,0-2.2-5.966,6.763,6.763,0,0,0-5.181-2.2h-37.68a6.763,6.763,0,0,0-5.181,2.2,8.4,8.4,0,0,0-2.2,5.966v71.121a8.4,8.4,0,0,0,2.2,5.966,6.763,6.763,0,0,0,5.181,2.2h37.68a6.763,6.763,0,0,0,5.181-2.2A8.4,8.4,0,0,0,227.65-23.864ZM391.4-115.238V-4.4q-.628,4.239-4.239,4.4H365.025q-3.925,0-5.338-2.669l-45.216-82.9V-4.239a4.748,4.748,0,0,1-.785,2.826A2.889,2.889,0,0,1,311.174,0h-17.9a2.984,2.984,0,0,1-2.512-1.256,4.471,4.471,0,0,1-.785-2.669v-108.8a5.672,5.672,0,0,1,2.041-4.553,6.476,6.476,0,0,1,4.239-1.413H316.2q4.553,0,7.065,4.553l43.646,80.7v-81.8a3.271,3.271,0,0,1,1.256-2.512,4,4,0,0,1,2.669-1.1h16.8Q391.4-118.535,391.4-115.238Zm135.177-.314v9.263q0,3.14-3.454,3.14H486.857V-4.4a4.748,4.748,0,0,1-.785,2.826A2.889,2.889,0,0,1,483.56-.157h-17.9a2.984,2.984,0,0,1-2.512-1.256,4.471,4.471,0,0,1-.785-2.669v-99.067H425.941q-2.983-.157-3.3-3.3v-9.106q.628-3.14,3.3-3.3H522.81a4.059,4.059,0,0,1,2.669.785A3.142,3.142,0,0,1,526.578-115.552Zm99.538,2.041L667.721-2.2a1.452,1.452,0,0,1-.157,1.727,2.166,2.166,0,0,1-1.57.471H645.741a3.176,3.176,0,0,1-3.3-2.355L633.338-27H583.726L574.62-1.884A2.667,2.667,0,0,1,571.794,0H550.128q-1.727-.157-.942-2.512l41.448-111a7.294,7.294,0,0,1,3.768-4.4,15.266,15.266,0,0,1,6.123-.942h16.956q4.082,0,5.809,1.1Q624.86-116.808,626.116-113.511ZM608.532-94.985l-19,52.281h38.151ZM798.659-42.861v22.294q0,8.949-4.553,14.287Q789.082,0,778.406,0H717.961q-10.2,0-15.7-6.594a20.64,20.64,0,0,1-5.024-13.973V-98.282q0-8.792,5.181-14.444,5.338-6.123,15.072-6.123h60.916q10.048,0,15.386,5.966,4.867,5.181,4.867,14.6v17.9a4.748,4.748,0,0,1-.785,2.826,2.889,2.889,0,0,1-2.512,1.413h-17.9a2.984,2.984,0,0,1-2.512-1.256,4.471,4.471,0,0,1-.785-2.669V-94.985q0-8.164-7.379-8.164h-37.68a6.708,6.708,0,0,0-5.024,2.355,8.427,8.427,0,0,0-2.355,5.966v70.493a8.611,8.611,0,0,0,2.355,5.809,7.306,7.306,0,0,0,5.495,2.826h37.209a7.035,7.035,0,0,0,5.652-2.2,9.014,9.014,0,0,0,1.727-5.966v-19a3.751,3.751,0,0,1,.942-2.512,3.142,3.142,0,0,1,2.512-1.1h17.741a2.975,2.975,0,0,1,2.355,1.1A3.751,3.751,0,0,1,798.659-42.861Zm135.177-72.691v9.263q0,3.14-3.454,3.14H894.115V-4.4a4.748,4.748,0,0,1-.785,2.826,2.889,2.889,0,0,1-2.512,1.413h-17.9a2.984,2.984,0,0,1-2.512-1.256,4.472,4.472,0,0,1-.785-2.669v-99.067H833.2q-2.983-.157-3.3-3.3v-9.106q.628-3.14,3.3-3.3h96.869a4.059,4.059,0,0,1,2.669.785A3.142,3.142,0,0,1,933.836-115.552Zm192.011.314v94.671q0,10.362-5.495,15.543Q1115.014,0,1105.594,0h-60.916q-9.734,0-15.229-5.966-5.024-5.5-5.024-14.6v-94.514q0-3.768,3.611-3.768h17.741a2.7,2.7,0,0,1,2.355,1.1,4.059,4.059,0,0,1,.785,2.669v90.9q0,8.478,7.379,8.478h37.68a7.036,7.036,0,0,0,5.652-2.2,9.015,9.015,0,0,0,1.727-5.966v-91.374q.314-3.14,3.768-3.611h17.584Q1125.847-118.849,1125.847-115.238Zm133.764,70.179v27a17.754,17.754,0,0,1-6.123,13.5A17.374,17.374,0,0,1,1241.4,0h-61.858q-9.106,0-14.13-5.966a16.747,16.747,0,0,1-4.082-11.618V-37.052a2.975,2.975,0,0,1,1.1-2.355,3.559,3.559,0,0,1,2.355-.942h17.741a3.288,3.288,0,0,1,3.3,3.454v14.287q.314,6.437,7.536,6.908h34.069a8.229,8.229,0,0,0,5.495-1.727,6.463,6.463,0,0,0,2.2-5.181V-35.953q0-6.908-6.123-8.792l-52.281-14.6a16.523,16.523,0,0,1-10.2-7.222,18.849,18.849,0,0,1-2.983-10.833V-100.48a17.478,17.478,0,0,1,5.181-12.874q5.181-5.5,13.816-5.5H1238.1q9.891,0,14.758,5.809,3.925,4.71,3.925,12.4v13.973q0,4.553-3.454,4.553h-17.584q-3.454,0-3.454-4.239v-9.577a6.384,6.384,0,0,0-1.884-4.4,6.419,6.419,0,0,0-4.867-2.2h-30.3q-7.065.628-7.065,6.594v10.362a8.484,8.484,0,0,0,1.727,5.652,8.64,8.64,0,0,0,4.71,2.669l52.752,14.287q4.71,1.256,8.635,7.222A19.467,19.467,0,0,1,1259.611-45.059Z" transform="translate(-11.147 118.849)" opacity="0.1" fill="url(#linear-gradient)"/>
</svg>
