<svg xmlns="http://www.w3.org/2000/svg" width="15" height="13.73" viewBox="0 0 15 13.73">
  <g id="Layer_2" data-name="Layer 2" transform="translate(-1 -2.75)">
    <path id="Path_582713" data-name="Path 582713" d="M13.895,3.5h-1.76V3.25a.5.5,0,1,0-1,0V3.5H5.865V3.25a.5.5,0,0,0-1,0V3.5H3.1A2.11,2.11,0,0,0,1,5.6v8.77a2.11,2.11,0,0,0,2.1,2.1h10.79a2.11,2.11,0,0,0,2.1-2.1V5.6a2.11,2.11,0,0,0-2.1-2.1ZM3.1,4.5h1.76v.25a.5.5,0,1,0,1,0V4.5h5.27v.25a.5.5,0,1,0,1,0V4.5h1.76A1.1,1.1,0,0,1,15,5.6V6.79H2V5.6A1.1,1.1,0,0,1,3.1,4.5Zm10.79,11H3.1A1.1,1.1,0,0,1,2,14.375V7.79H15v6.585a1.1,1.1,0,0,1-1.1,1.125Z" fill="#fff"/>
  </g>
</svg>
