<svg xmlns="http://www.w3.org/2000/svg" width="18.134" height="26.903" viewBox="0 0 18.134 26.903">
  <g id="employee" transform="translate(-83.447)">
    <g id="Group_43589" data-name="Group 43589" transform="translate(83.447)">
      <path id="Path_582711" data-name="Path 582711" d="M101.187,21.8a.394.394,0,0,0-.394.394V25.9a.218.218,0,0,1-.218.218H98.457V18.354a.394.394,0,1,0-.788,0v7.761H93.4l1.237-1.361a.707.707,0,0,0,.17-.567l0-.012L93.63,17.215l.317-.478a.894.894,0,0,0,.564.245.69.69,0,0,0,.618-.382h0l1.243-2.491,2.831,1.1a2.731,2.731,0,0,1,1.59,2.482v2.666a.394.394,0,1,0,.788,0V17.688a3.517,3.517,0,0,0-2.08-3.212l-.008,0-4.712-1.825V11.543a3.693,3.693,0,0,0,1.4-2.429,1.706,1.706,0,0,0,1-.409,1.673,1.673,0,0,0,.175-2.361V4.884a4.884,4.884,0,1,0-9.769,0v1.5a1.582,1.582,0,0,0-.406,1.055,1.67,1.67,0,0,0,.581,1.268,1.7,1.7,0,0,0,1,.409A3.654,3.654,0,0,0,90.241,11.6v1.047l-4.707,1.825-.007,0a3.517,3.517,0,0,0-2.08,3.212V25.9A1.007,1.007,0,0,0,84.453,26.9h3.755a.394.394,0,1,0,0-.788H87.36V18.354a.394.394,0,1,0-.788,0v7.761H84.453a.218.218,0,0,1-.218-.218v-8.21a2.731,2.731,0,0,1,1.589-2.482l2.829-1.1L89.9,16.6a.69.69,0,0,0,.618.382.893.893,0,0,0,.564-.245l.317.478-1.178,6.961,0,.012a.707.707,0,0,0,.17.567l1.237,1.361H90.047a.394.394,0,0,0,0,.788h10.528a1.007,1.007,0,0,0,1.006-1.006V22.192A.394.394,0,0,0,101.187,21.8Zm-5.553-7.975-1.159,2.322-1.393-.99,1.431-1.766ZM93.3,16.28l-.3.452h-.983l-.3-.452.792-.562Zm-2.275-3.505v-.738a4,4,0,0,0,1.49.282,3.7,3.7,0,0,0,1.474-.307v.765l-1.481,1.828Zm5.945-5.338a.883.883,0,0,1-.307.67.918.918,0,0,1-.455.21V6.558A.892.892,0,0,1,96.974,7.437Zm-8.243.88a.89.89,0,0,1-.762-.88.936.936,0,0,1,.762-.86Zm.021-2.542a1.949,1.949,0,0,0-.377.085V4.884a4.1,4.1,0,1,1,8.192,0v.948a1.752,1.752,0,0,0-.355-.069c0-.38,0-.307-1.241-1.644a.7.7,0,0,0-.9-.109,7.6,7.6,0,0,1-4.593,1.237A.7.7,0,0,0,88.752,5.775Zm.767,2.853V6.039A8.422,8.422,0,0,0,94.445,4.71c.571.613.88.934.979,1.056V8.627a2.953,2.953,0,0,1-5.9,0Zm1.031,7.518-1.159-2.322,1.119-.433,1.431,1.767ZM91,24.261l1.141-6.74h.739l1.141,6.74-1.51,1.662Z" transform="translate(-83.447)" fill="#fff"/>
    </g>
  </g>
</svg>
