<svg xmlns="http://www.w3.org/2000/svg" xmlns:xlink="http://www.w3.org/1999/xlink" width="194.205" height="32.379" viewBox="0 0 194.205 32.379">
  <defs>
    <clipPath id="clip-path">
      <rect id="Rectangle_237" data-name="Rectangle 237" width="194.205" height="32.379" fill="#fff"/>
    </clipPath>
  </defs>
  <g id="Group_541" data-name="Group 541" transform="translate(-26.217 -156.491)">
    <g id="Group_540" data-name="Group 540" transform="translate(26.217 156.491)">
      <g id="Group_539" data-name="Group 539" transform="translate(0 0)" clip-path="url(#clip-path)">
        <path id="Path_525" data-name="Path 525" d="M142.13.1C131,.1,121.943,7.293,121.943,16.14v.2c0,8.846,9.056,16.044,20.187,16.044h21.73c11.131,0,20.187-7.2,20.187-16.044v-.2C184.046,7.293,174.99.1,163.859.1Zm6.105,26.436c-7.075,0-12.831-4.574-12.831-10.2v-.2c0-5.623,5.756-10.2,12.831-10.2h9.519c7.074,0,12.831,4.575,12.831,10.2v.2c0,5.623-5.756,10.2-12.831,10.2Z" transform="translate(-50.513 -0.04)" fill="#fff"/>
        <path id="Path_526" data-name="Path 526" d="M51.806,32.369c6.58,0,12.067-4.153,12.172-9.382.084-4.235-3.325-7.856-8.081-9.166a7.919,7.919,0,0,0,1.238-4.248C57.112,4.3,51.6.073,44.965.073H.462A.461.461,0,0,0,.175.9L5,4.732A5.349,5.349,0,0,0,8.334,5.92H38.927c2.6,0,4.79,1.689,4.746,3.752-.043,2.005-2.108,3.626-4.641,3.626H7.34a.738.738,0,0,0-.737.738V30.3a2.386,2.386,0,0,0,2.607,2.072Zm-6.035-5.847H20.064V19.144H45.877c2.533,0,4.6,1.621,4.641,3.626.044,2.064-2.15,3.752-4.746,3.752" transform="translate(0 -0.03)" fill="#fff"/>
        <path id="Path_527" data-name="Path 527" d="M274.461,14.837,292.095.822A.461.461,0,0,0,291.808,0h-13.46A4.771,4.771,0,0,0,275.4.971L264.506,9.629,253.612.971A4.771,4.771,0,0,0,250.663,0H237.2a.461.461,0,0,0-.287.822l17.633,14.015Z" transform="translate(-98.066 0)" fill="#fff"/>
        <path id="Path_528" data-name="Path 528" d="M254.457,30.071,236.916,44.013a.461.461,0,0,0,.287.822h13.46a4.771,4.771,0,0,0,2.949-.971l10.894-8.658L275.4,43.864a4.771,4.771,0,0,0,2.949.971h13.46a.461.461,0,0,0,.287-.822L274.553,30.071Z" transform="translate(-98.066 -12.456)" fill="#fff"/>
      </g>
    </g>
  </g>
</svg>
