<svg xmlns="http://www.w3.org/2000/svg" xmlns:xlink="http://www.w3.org/1999/xlink" width="1228" height="541" viewBox="0 0 1228 541">
  <defs>
    <clipPath id="clip-path">
      <rect id="Rectangle_234" data-name="Rectangle 234" width="1228" height="541" transform="translate(298 2683)" fill="#fff" stroke="#707070" stroke-width="1"/>
    </clipPath>
    <linearGradient id="linear-gradient" x1="0.5" x2="0.5" y2="0.214" gradientUnits="objectBoundingBox">
      <stop offset="0" stop-color="#fff" stop-opacity="0.702"/>
      <stop offset="1" stop-color="gray" stop-opacity="0"/>
    </linearGradient>
  </defs>
  <g id="Mask_Group_32" data-name="Mask Group 32" transform="translate(-298 -2683)" clip-path="url(#clip-path)">
    <path id="Subtraction_2" data-name="Subtraction 2" d="M551,1102a559.861,559.861,0,0,1-56.337-2.845,552.392,552.392,0,0,1-54.709-8.35c-17.751-3.632-35.517-8.2-52.8-13.578-17.1-5.317-34.127-11.551-50.624-18.528-16.345-6.913-32.55-14.72-48.165-23.2-15.5-8.423-30.789-17.708-45.43-27.6-14.57-9.843-28.842-20.515-42.418-31.719C186.969,965,173.8,953.036,161.384,940.616S137,915.03,125.821,901.487c-11.2-13.577-21.876-27.848-31.719-42.418-9.891-14.641-19.177-29.926-27.6-45.43-8.483-15.615-16.289-31.82-23.2-48.165-6.978-16.5-13.212-33.53-18.528-50.624-5.377-17.287-9.945-35.053-13.578-52.8a552.438,552.438,0,0,1-8.35-54.709,559.248,559.248,0,0,1,0-112.673,552.437,552.437,0,0,1,8.35-54.709c3.633-17.751,8.2-35.518,13.578-52.8,5.317-17.094,11.55-34.126,18.528-50.624,6.913-16.345,14.72-32.55,23.2-48.165,8.423-15.5,17.708-30.789,27.6-45.43,9.843-14.57,20.515-28.841,31.719-42.418C137,186.969,148.963,173.8,161.384,161.384S186.969,137,200.512,125.821c13.576-11.2,27.848-21.876,42.418-31.719,14.641-9.891,29.925-19.177,45.43-27.6,15.615-8.483,31.821-16.289,48.165-23.2,16.5-6.977,33.528-13.211,50.624-18.528,17.287-5.377,35.053-9.945,52.8-13.577a552.409,552.409,0,0,1,54.709-8.35,559.251,559.251,0,0,1,112.673,0,552.408,552.408,0,0,1,54.709,8.35c17.751,3.632,35.517,8.2,52.8,13.577,17.1,5.317,34.127,11.551,50.624,18.528,16.345,6.913,32.55,14.72,48.165,23.2,15.5,8.423,30.789,17.708,45.43,27.6,14.57,9.843,28.842,20.515,42.418,31.719,13.542,11.176,26.707,23.141,39.129,35.563S965,186.97,976.179,200.513c11.2,13.577,21.876,27.848,31.719,42.418,9.891,14.641,19.177,29.926,27.6,45.43,8.483,15.616,16.289,31.821,23.2,48.165,6.978,16.5,13.211,33.529,18.528,50.624,5.377,17.288,9.945,35.054,13.577,52.8a552.335,552.335,0,0,1,8.35,54.709,559.239,559.239,0,0,1,0,112.673,552.336,552.336,0,0,1-8.35,54.709c-3.632,17.751-8.2,35.517-13.577,52.8-5.317,17.094-11.551,34.127-18.528,50.624-6.913,16.344-14.72,32.549-23.2,48.165-8.422,15.5-17.708,30.789-27.6,45.43-9.843,14.57-20.515,28.841-31.719,42.418C965,915.03,953.037,928.195,940.616,940.616S915.03,965,901.488,976.178c-13.576,11.2-27.848,21.876-42.418,31.719-14.641,9.891-29.925,19.177-45.43,27.6-15.615,8.483-31.821,16.289-48.165,23.2-16.5,6.977-33.528,13.211-50.624,18.528-17.287,5.377-35.054,9.945-52.8,13.578a552.391,552.391,0,0,1-54.709,8.35A559.865,559.865,0,0,1,551,1102ZM551,2.062C248.314,2.062,2.061,248.314,2.061,551S248.314,1099.938,551,1099.938,1099.94,853.685,1099.94,551,853.686,2.062,551,2.062Z" transform="translate(385 2703)" fill="url(#linear-gradient)"/>
  </g>
</svg>
