<svg xmlns="http://www.w3.org/2000/svg" xmlns:xlink="http://www.w3.org/1999/xlink" width="51.94" height="51.94" viewBox="0 0 51.94 51.94">
  <defs>
    <clipPath id="clip-path">
      <path id="path2445" d="M0-682.665H51.94v51.94H0Z" transform="translate(0 682.665)"/>
    </clipPath>
  </defs>
  <g id="g2439" transform="translate(0 682.665)">
    <g id="g2441" transform="translate(0 -682.665)">
      <g id="g2443" clip-path="url(#clip-path)">
        <g id="g2449" transform="translate(13.772 18.168)">
          <path id="path2451" d="M-80.4-8.807a4.227,4.227,0,0,0-2.374-.725,4.247,4.247,0,0,0-4.247,4.247,4.247,4.247,0,0,0,4.247,4.247,3.413,3.413,0,0,0,2.331-.843,3.4,3.4,0,0,0,.345-.356" transform="translate(87.021 9.532)" fill="none" stroke="#d9d9d9" stroke-linecap="round" stroke-linejoin="round" stroke-width="1"/>
        </g>
        <g id="g2453" transform="translate(34.648 14.585)">
          <path id="path2455" d="M-31.924-59.116s-2.328.029-2.439-.007.177-.231,1.7-2.412a3.083,3.083,0,0,0,.509-1.039l.024-.185a1.225,1.225,0,0,0-1.224-1.225,1.225,1.225,0,0,0-1.2.987" transform="translate(34.553 63.984)" fill="none" stroke="#d9d9d9" stroke-linecap="round" stroke-linejoin="round" stroke-width="1"/>
        </g>
        <g id="g2457" transform="translate(23.482 18.168)">
          <path id="path2459" d="M-103.136-51.568a4.247,4.247,0,0,1-4.247,4.247,4.247,4.247,0,0,1-4.247-4.247,4.247,4.247,0,0,1,4.247-4.247A4.247,4.247,0,0,1-103.136-51.568Z" transform="translate(111.629 55.815)" fill="none" stroke="#d9d9d9" stroke-linecap="round" stroke-linejoin="round" stroke-width="1"/>
        </g>
        <g id="g2461" transform="translate(0.761 6.453)">
          <path id="path2463" d="M-503.622-316h.813a8.132,8.132,0,0,0,8.132-8.132,8.135,8.135,0,0,0-5.727-7.77,4.846,4.846,0,0,0-1.394-3.812,4.877,4.877,0,0,0-5.243-1.085,12.978,12.978,0,0,0-10.406-5.224,13,13,0,0,0-10.8,5.755,5.659,5.659,0,0,0-3.024-.876,5.689,5.689,0,0,0-5.628,4.882c-.022,0-.042,0-.064,0a8.132,8.132,0,0,0-8.132,8.132A8.132,8.132,0,0,0-536.964-316h.813" transform="translate(545.096 342.021)" fill="none" stroke="#d9d9d9" stroke-linecap="round" stroke-linejoin="round" stroke-width="1"/>
        </g>
        <g id="g2465" transform="translate(12.959 30.849)">
          <path id="path2467" d="M0,0V9.759" transform="translate(0)" fill="none" stroke="#d9d9d9" stroke-linecap="round" stroke-linejoin="round" stroke-width="1"/>
        </g>
        <g id="g2469" transform="translate(10.519 38.981)">
          <path id="path2471" d="M0,0,2.44,2.44,4.879,0" fill="none" stroke="#d9d9d9" stroke-linecap="round" stroke-linejoin="round" stroke-width="1"/>
        </g>
        <g id="g2473" transform="translate(19.465 30.849)">
          <path id="path2475" d="M0,0V13.824" transform="translate(0)" fill="none" stroke="#d9d9d9" stroke-linecap="round" stroke-linejoin="round" stroke-width="1"/>
        </g>
        <g id="g2477" transform="translate(17.025 43.047)">
          <path id="path2479" d="M0,0,2.44,2.44,4.879,0" fill="none" stroke="#d9d9d9" stroke-linecap="round" stroke-linejoin="round" stroke-width="1"/>
        </g>
        <g id="g2481" transform="translate(25.97 30.849)">
          <path id="path2483" d="M0,0V9.759" fill="none" stroke="#d9d9d9" stroke-linecap="round" stroke-linejoin="round" stroke-width="1"/>
        </g>
        <g id="g2485" transform="translate(23.531 38.981)">
          <path id="path2487" d="M0,0,2.44,2.44,4.879,0" fill="none" stroke="#d9d9d9" stroke-linecap="round" stroke-linejoin="round" stroke-width="1"/>
        </g>
        <g id="g2489" transform="translate(38.981 30.849)">
          <path id="path2491" d="M0,0V9.759" fill="none" stroke="#d9d9d9" stroke-linecap="round" stroke-linejoin="round" stroke-width="1"/>
        </g>
        <g id="g2493" transform="translate(36.542 38.981)">
          <path id="path2495" d="M0,0,2.44,2.44,4.879,0" fill="none" stroke="#d9d9d9" stroke-linecap="round" stroke-linejoin="round" stroke-width="1"/>
        </g>
        <g id="g2497" transform="translate(32.476 30.849)">
          <path id="path2499" d="M0,0V13.824" transform="translate(0)" fill="none" stroke="#d9d9d9" stroke-linecap="round" stroke-linejoin="round" stroke-width="1"/>
        </g>
        <g id="g2501" transform="translate(30.036 43.047)">
          <path id="path2503" d="M0,0,2.44,2.44,4.879,0" fill="none" stroke="#d9d9d9" stroke-linecap="round" stroke-linejoin="round" stroke-width="1"/>
        </g>
      </g>
    </g>
  </g>
</svg>
