<svg xmlns="http://www.w3.org/2000/svg" xmlns:xlink="http://www.w3.org/1999/xlink" width="56.809" height="125.617" viewBox="0 0 56.809 125.617">
  <defs>
    <linearGradient id="linear-gradient" x1="0.5" x2="0.5" y2="1" gradientUnits="objectBoundingBox">
      <stop offset="0" stop-color="#3b3b3b"/>
      <stop offset="1" stop-color="gray" stop-opacity="0"/>
    </linearGradient>
    <linearGradient id="linear-gradient-2" x1="0.5" x2="0.5" y2="1" gradientUnits="objectBoundingBox">
      <stop offset="0" stop-color="#151e29"/>
      <stop offset="0.506" stop-color="#484848" stop-opacity="0.494"/>
      <stop offset="1" stop-color="gray" stop-opacity="0"/>
    </linearGradient>
    <linearGradient id="linear-gradient-3" x1="0.5" x2="0.5" y2="1" gradientUnits="objectBoundingBox">
      <stop offset="0" stop-color="red" stop-opacity="0"/>
      <stop offset="0"/>
      <stop offset="0.507" stop-color="#fff"/>
      <stop offset="1"/>
    </linearGradient>
  </defs>
  <g id="Group_43684" data-name="Group 43684" transform="translate(-1144.475 -2543.562)">
    <circle id="Ellipse_16" data-name="Ellipse 16" cx="28" cy="28" r="28" transform="translate(1144.475 2544.179)" fill="url(#linear-gradient)"/>
    <rect id="Rectangle_235" data-name="Rectangle 235" width="3" height="69" transform="translate(1171.475 2600.179)" fill="url(#linear-gradient-2)"/>
    <g id="electric-station_1_" data-name="electric-station (1)" transform="translate(1159.842 2559.645)" opacity="0.25">
      <path id="Path_522" data-name="Path 522" d="M83.45,110.6h4.7v2.475h-4.7Z" transform="translate(-79.263 -105.179)" fill="#fff"/>
      <path id="Path_523" data-name="Path 523" d="M12.957,1.8a.735.735,0,0,0-.43-.551,15.03,15.03,0,0,0-11.982,0A.735.735,0,0,0,.1,1.919V24.334a.735.735,0,0,0,.735.735H12.233a.734.734,0,0,0,.724-.613c-.007-.04-.007-22.619,0-22.659Zm-2.6,2.887V8.628a.735.735,0,0,1-.735.735H3.452a.735.735,0,0,1-.735-.735V4.683a.735.735,0,0,1,.735-.735H9.62A.735.735,0,0,1,10.354,4.683Zm-5.291,12.4a.735.735,0,0,1-.642-1.092l1.632-2.938a.735.735,0,1,1,1.285.714L6.312,15.617h1.7a.735.735,0,0,1,.636,1.1l-1.791,3.1a.735.735,0,0,1-1.272-.736l1.154-1.994H5.064Z" fill="#fff"/>
      <path id="Path_524" data-name="Path 524" d="M302.275,38.815h-.181V37.695a.735.735,0,0,0-1.47,0v1.121H299.3V37.695a.735.735,0,1,0-1.47,0v1.121h-.207a.735.735,0,0,0-.735.735v1.967a3.064,3.064,0,0,0,2.328,2.97v8.764a1.846,1.846,0,0,1-3.691,0V49.035a3.315,3.315,0,0,0-3.258-3.308V47.2a1.844,1.844,0,0,1,1.789,1.838v4.217a3.315,3.315,0,0,0,6.63,0V44.487a3.063,3.063,0,0,0,2.328-2.97V39.55A.735.735,0,0,0,302.275,38.815Z" transform="translate(-277.848 -35.149)" fill="#fff"/>
    </g>
    <path id="Ellipse_19" data-name="Ellipse 19" d="M28.309,1.287A27.029,27.029,0,0,0,17.791,53.207,27.029,27.029,0,0,0,38.826,3.41,26.852,26.852,0,0,0,28.309,1.287m0-1.287A28.309,28.309,0,1,1,0,28.309,28.309,28.309,0,0,1,28.309,0Z" transform="translate(1144.666 2543.562)" fill="url(#linear-gradient-3)"/>
  </g>
</svg>
