<svg xmlns="http://www.w3.org/2000/svg" width="47.168" height="47.168" viewBox="0 0 47.168 47.168">
  <g id="electicity-car-ev-electric_car-vehicle" data-name="electicity-car-ev-electric car-vehicle" transform="translate(-2 -2)" opacity="0.672">
    <path id="Path_148317" data-name="Path 148317" d="M55.289,17H49v1.572h6.289a2.358,2.358,0,0,1,2.358,2.358V22.5H59.22V20.931A3.935,3.935,0,0,0,55.289,17Z" transform="translate(-10.052 -3.208)" fill="#fff"/>
    <path id="Path_148318" data-name="Path 148318" d="M25.786,17.006h3.931v5.5a.786.786,0,0,0,1.49.351l4.717-9.434a.786.786,0,0,0-.7-1.138H31.289v-5.5a.786.786,0,0,0-1.49-.351l-4.717,9.434a.786.786,0,0,0,.7,1.138Zm3.931-6.89v2.959a.786.786,0,0,0,.786.786h3.445l-2.659,5.317V16.22a.786.786,0,0,0-.786-.786H27.058Z" transform="translate(-4.919 -0.855)" fill="#fff"/>
    <path id="Path_148319" data-name="Path 148319" d="M28.792,25.584A11.792,11.792,0,1,0,17,13.792,11.792,11.792,0,0,0,28.792,25.584Zm0-22.012a10.22,10.22,0,1,1-10.22,10.22,10.22,10.22,0,0,1,10.22-10.22Z" transform="translate(-3.208)" fill="#fff"/>
    <path id="Path_148320" data-name="Path 148320" d="M60,30h1.572v9.434H60Z" transform="translate(-12.404 -5.988)" fill="#fff"/>
    <path id="Path_148321" data-name="Path 148321" d="M60,26h1.572v1.572H60Z" transform="translate(-12.404 -5.133)" fill="#fff"/>
    <path id="Path_148322" data-name="Path 148322" d="M12.22,17H5.931A3.935,3.935,0,0,0,2,20.931V22.5H3.572V20.931a2.358,2.358,0,0,1,2.358-2.358H12.22Z" transform="translate(0 -3.208)" fill="#fff"/>
    <path id="Path_148323" data-name="Path 148323" d="M2,30H3.572v9.434H2Z" transform="translate(0 -5.988)" fill="#fff"/>
    <path id="Path_148324" data-name="Path 148324" d="M2,26H3.572v1.572H2Z" transform="translate(0 -5.133)" fill="#fff"/>
    <path id="Path_148325" data-name="Path 148325" d="M18.5,49H13.786a.786.786,0,0,0-.786.786v1.572a2.358,2.358,0,0,0,2.358,2.358h4.717a.786.786,0,0,0,.786-.786V51.358A2.358,2.358,0,0,0,18.5,49Zm.786,3.145H15.358a.786.786,0,0,1-.786-.786v-.786H18.5a.786.786,0,0,1,.786.786Z" transform="translate(-2.353 -10.052)" fill="#fff"/>
    <path id="Path_148326" data-name="Path 148326" d="M43.358,49A2.358,2.358,0,0,0,41,51.358v1.572a.786.786,0,0,0,.786.786H46.5a2.358,2.358,0,0,0,2.358-2.358V49.786A.786.786,0,0,0,48.075,49Zm3.931,2.358a.786.786,0,0,1-.786.786H42.572v-.786a.786.786,0,0,1,.786-.786h3.931Z" transform="translate(-8.341 -10.052)" fill="#fff"/>
    <path id="Path_148327" data-name="Path 148327" d="M43.034,42.092l-1.258,1.254L39.6,36.472A3.912,3.912,0,0,0,35.958,34H18.2a3.926,3.926,0,0,0-3.669,2.527L12.38,43.346l-1.254-1.254a.786.786,0,0,0-.554-.23H9v1.572h1.247l.786.786-1.016,1.016a.786.786,0,0,0-.23.556v6.289a.786.786,0,0,0,.786.786h.786v.786a2.358,2.358,0,0,0,2.358,2.358h1.572a2.358,2.358,0,0,0,2.358-2.358v-.786H36.515v.786a2.358,2.358,0,0,0,2.358,2.358h1.572A2.358,2.358,0,0,0,42.8,53.653v-.786h.786a.786.786,0,0,0,.786-.786V45.792a.786.786,0,0,0-.23-.556L43.129,44.22l.786-.786h1.247V41.861H43.59a.786.786,0,0,0-.556.23ZM16.015,37.055A2.346,2.346,0,0,1,18.2,35.572H35.958A2.333,2.333,0,0,1,38.128,37l2.031,6.434H37.3V41.075a2.358,2.358,0,0,0-2.358-2.358H31.8a2.358,2.358,0,0,0-2.358,2.358v2.358H24.723V41.075a2.358,2.358,0,0,0-2.358-2.358H19.22a2.358,2.358,0,0,0-2.358,2.358v2.358H14Zm19.714,6.379H31.012V41.075a.786.786,0,0,1,.786-.786h3.145a.786.786,0,0,1,.786.786Zm-12.578,0H18.434V41.075a.786.786,0,0,1,.786-.786h3.145a.786.786,0,0,1,.786.786ZM42.8,51.295h-.786a.786.786,0,0,0-.786.786v1.572a.786.786,0,0,1-.786.786H38.873a.786.786,0,0,1-.786-.786V52.081a.786.786,0,0,0-.786-.786H16.861a.786.786,0,0,0-.786.786v1.572a.786.786,0,0,1-.786.786H13.717a.786.786,0,0,1-.786-.786V52.081a.786.786,0,0,0-.786-.786h-.786V46.117l1.112-1.112H41.692L42.8,46.117Z" transform="translate(-1.497 -6.844)" fill="#fff"/>
  </g>
</svg>
