<svg xmlns="http://www.w3.org/2000/svg" width="42.475" height="42.475" viewBox="0 0 42.475 42.475">
  <path id="linkedin" d="M21.237,0A21.237,21.237,0,1,0,42.475,21.237,21.24,21.24,0,0,0,21.237,0ZM15.066,32.1H9.894V16.544h5.172ZM12.48,14.419h-.034a2.7,2.7,0,1,1,.068-5.377,2.7,2.7,0,1,1-.034,5.377ZM33.716,32.1H28.544V23.78c0-2.092-.749-3.519-2.62-3.519a2.831,2.831,0,0,0-2.654,1.892,3.542,3.542,0,0,0-.17,1.262V32.1H17.928s.068-14.1,0-15.561H23.1v2.2a5.135,5.135,0,0,1,4.661-2.568c3.4,0,5.955,2.224,5.955,7Zm0,0" fill="#fff"/>
</svg>
