<svg xmlns="http://www.w3.org/2000/svg" viewBox="0 0 16.18 16.18">
  <defs>
    <style>
      .cls-1 {
        fill: #fff;
      }
    </style>
  </defs>
  <g id="Layer_2" data-name="Layer 2">
    <g id="Layer_1-2" data-name="Layer 1">
      <g id="link">
        <g id="Group_20542" data-name="Group 20542">
          <g id="Group_20541" data-name="Group 20541">
            <path id="Path_5245" data-name="Path 5245" class="cls-1" d="M6.72,12.32l-1.9,1.9A2,2,0,0,1,2,11.36L5.77,7.55a2,2,0,0,1,2.85,0,.68.68,0,0,0,1-1h0a3.37,3.37,0,0,0-4.76,0h0L1,10.41a3.37,3.37,0,0,0,4.72,4.8l0,0,1.9-1.9a.67.67,0,1,0-1-.95Z"/>
            <path id="Path_5246" data-name="Path 5246" class="cls-1" d="M15.19,1a3.36,3.36,0,0,0-4.76,0h0L8.14,3.27a.68.68,0,0,0,1,.95l2.28-2.28a2,2,0,1,1,2.89,2.82l0,0L10.05,9A2,2,0,0,1,7.19,9a.68.68,0,0,0-1,0,.69.69,0,0,0,0,1,3.37,3.37,0,0,0,4.76,0h0l4.19-4.19A3.36,3.36,0,0,0,15.19,1Z"/>
          </g>
        </g>
      </g>
    </g>
  </g>
</svg>
