<svg xmlns="http://www.w3.org/2000/svg" width="15.381" height="15.381" viewBox="0 0 15.381 15.381">
  <g id="calendar_19_" data-name="calendar (19)" opacity="0.44">
    <path id="Path_5242" data-name="Path 5242" d="M13.4,1.2H12.016V.481a.481.481,0,0,0-.961,0V1.2H4.326V.481a.481.481,0,1,0-.961,0V1.2H1.983A1.985,1.985,0,0,0,0,3.184V13.4a1.985,1.985,0,0,0,1.983,1.983H13.4A1.985,1.985,0,0,0,15.381,13.4V3.184A1.985,1.985,0,0,0,13.4,1.2ZM1.983,2.163H3.365v.481a.481.481,0,1,0,.961,0V2.163h6.729v.481a.481.481,0,0,0,.961,0V2.163H13.4A1.023,1.023,0,0,1,14.42,3.184V4.326H.961V3.184A1.023,1.023,0,0,1,1.983,2.163ZM13.4,14.42H1.983A1.023,1.023,0,0,1,.961,13.4V5.287H14.42V13.4A1.023,1.023,0,0,1,13.4,14.42Z" transform="translate(0)" fill="#fff"/>
  </g>
</svg>
