<svg xmlns="http://www.w3.org/2000/svg" width="46.362" height="50.816" viewBox="0 0 46.362 50.816">
  <path id="reduce-cost" d="M55.23,25.766a7.994,7.994,0,1,0,7.994,7.994,8,8,0,0,0-7.994-7.994Zm0,14.949a6.957,6.957,0,1,1,6.957-6.957,6.964,6.964,0,0,1-6.957,6.957Zm2.34-5.136a2.344,2.344,0,0,1-1.821,2.282v.472a.519.519,0,0,1-1.037,0v-.472a2.341,2.341,0,0,1-1.439-1,.518.518,0,0,1,.867-.568,1.3,1.3,0,1,0,1.09-2.015,2.34,2.34,0,0,1-.519-4.621v-.472a.519.519,0,0,1,1.037,0v.472a2.341,2.341,0,0,1,1.439,1,.518.518,0,1,1-.867.568,1.3,1.3,0,1,0-1.09,2.015A2.344,2.344,0,0,1,57.57,35.579ZM55.23,22.716A11.044,11.044,0,1,0,66.274,33.759,11.056,11.056,0,0,0,55.23,22.716Zm0,21.05A10.007,10.007,0,1,1,65.237,33.759,10.018,10.018,0,0,1,55.23,43.766Zm23.528,11.6a.909.909,0,0,0-.836-.55H76.153V47.739a1.3,1.3,0,0,0-1.3-1.3h-1.2a2.939,2.939,0,0,0-.677-2.213l-2.08-2.466A1.653,1.653,0,0,1,72,39.042l3.215-.3a2.9,2.9,0,0,0,2.647-2.619,23.017,23.017,0,0,0-.019-4.913,2.9,2.9,0,0,0-2.668-2.6l-3.218-.273a1.654,1.654,0,0,1-1.135-2.708l2.061-2.484a2.907,2.907,0,0,0,.02-3.724,22.94,22.94,0,0,0-3.49-3.461,2.906,2.906,0,0,0-3.723.051L63.227,18.1a1.653,1.653,0,0,1-2.716-1.112l-.3-3.213A2.907,2.907,0,0,0,57.6,11.123a23.016,23.016,0,0,0-4.913.019,2.906,2.906,0,0,0-2.6,2.668l-.273,3.218A1.653,1.653,0,0,1,47.1,18.162L44.621,16.1a2.905,2.905,0,0,0-3.723-.02,22.893,22.893,0,0,0-3.461,3.49,2.907,2.907,0,0,0,.05,3.723l2.08,2.466a1.653,1.653,0,0,1-1.112,2.716l-3.215.3a2.907,2.907,0,0,0-2.648,2.619,23.016,23.016,0,0,0,.019,4.913,2.9,2.9,0,0,0,2.668,2.6l3.218.273a1.653,1.653,0,0,1,1.134,2.708L37.571,44.37a2.907,2.907,0,0,0-.02,3.724,22.94,22.94,0,0,0,3.49,3.461,2.907,2.907,0,0,0,3.723-.05l2.466-2.08a1.654,1.654,0,0,1,2.717,1.112l.3,3.214A2.907,2.907,0,0,0,52.865,56.4a22.99,22.99,0,0,0,4.912-.019,2.906,2.906,0,0,0,2.6-2.668l.273-3.218a1.654,1.654,0,0,1,2.708-1.135l2.484,2.061a2.907,2.907,0,0,0,3.724.02l.028-.024V54.8l-1.722-.056a.9.9,0,0,0-.858.531.908.908,0,0,0,.161,1l4.75,5.124a1.3,1.3,0,0,0,.949.418h.005a1.3,1.3,0,0,0,.947-.411l4.761-5.053a.909.909,0,0,0,.173-.984Zm-9.85-4.737A1.879,1.879,0,0,1,66.5,50.62l-2.484-2.061a2.691,2.691,0,0,0-4.4,1.845l-.273,3.218a1.878,1.878,0,0,1-1.68,1.725,21.958,21.958,0,0,1-4.691.018,1.879,1.879,0,0,1-1.694-1.711l-.3-3.214a2.69,2.69,0,0,0-4.417-1.809l-2.466,2.08a1.878,1.878,0,0,1-2.407.032,21.863,21.863,0,0,1-3.331-3.3,1.881,1.881,0,0,1,.012-2.408l2.061-2.484a2.691,2.691,0,0,0-1.845-4.4l-3.218-.273a1.877,1.877,0,0,1-1.725-1.68,21.948,21.948,0,0,1-.018-4.69,1.879,1.879,0,0,1,1.711-1.694l3.215-.3a2.69,2.69,0,0,0,1.809-4.417l-2.08-2.466a1.878,1.878,0,0,1-.032-2.407,21.863,21.863,0,0,1,3.3-3.331,1.878,1.878,0,0,1,2.407.012l2.484,2.061a2.691,2.691,0,0,0,4.4-1.845l.273-3.218a1.878,1.878,0,0,1,1.68-1.725,21.958,21.958,0,0,1,4.691-.018,1.879,1.879,0,0,1,1.694,1.711l.3,3.214A2.69,2.69,0,0,0,63.9,18.89l2.466-2.08a1.878,1.878,0,0,1,2.407-.032,21.863,21.863,0,0,1,3.331,3.3,1.881,1.881,0,0,1-.012,2.408l-2.061,2.484a2.691,2.691,0,0,0,1.845,4.4l3.218.273a1.877,1.877,0,0,1,1.725,1.68,21.949,21.949,0,0,1,.018,4.69,1.879,1.879,0,0,1-1.711,1.694l-3.215.3A2.69,2.69,0,0,0,70.1,42.428l2.08,2.466a1.866,1.866,0,0,1,.424,1.544H70.891a1.3,1.3,0,0,0-1.3,1.3v2.313c-.223.2-.45.392-.681.58ZM73.069,60.7a.269.269,0,0,1-.194.084.262.262,0,0,1-.193-.086l-4.543-4.9,1.953.064a.517.517,0,0,0,.535-.517v-7.6a.264.264,0,0,1,.264-.264h3.96a.264.264,0,0,1,.264.264v7.6a.519.519,0,0,0,.519.519h1.993Z" transform="translate(-32.471 -11.001)" fill="#fff" opacity="0.784"/>
</svg>
