<svg xmlns="http://www.w3.org/2000/svg" xmlns:xlink="http://www.w3.org/1999/xlink" width="236.752" height="33.821" viewBox="0 0 236.752 33.821">
  <defs>
    <clipPath id="clip-path">
      <rect id="Rectangle_6" data-name="Rectangle 6" width="236.752" height="33.821" fill="none"/>
    </clipPath>
  </defs>
  <g id="Group_10" data-name="Group 10" transform="translate(0 0)">
    <g id="Group_9" data-name="Group 9" transform="translate(0 0)" clip-path="url(#clip-path)">
      <path id="Path_73" data-name="Path 73" d="M0,16.911A16.911,16.911,0,1,1,16.911,33.821,16.909,16.909,0,0,1,0,16.911M23.1,30.446A14.9,14.9,0,0,1,3.521,23.414a13.868,13.868,0,0,1,4.166-6.7c0,.075,0,.148,0,.221A13.641,13.641,0,0,0,23.1,30.446m-6.192-3.361a13.745,13.745,0,0,0,13.426-16.6,14.889,14.889,0,0,1-7.206,19.948A13.906,13.906,0,0,1,16.909,6.759,13.726,13.726,0,0,0,3.183,20.484a13.977,13.977,0,0,0,.287,2.825A14.885,14.885,0,0,1,30.3,10.413a13.869,13.869,0,0,1-4.17,6.718c0-.073,0-.146,0-.221A13.627,13.627,0,0,0,12.5,3.284a13.408,13.408,0,0,0-1.837.121,13.9,13.9,0,0,1,6.247,23.679" transform="translate(0 0)" fill="#dc000c" fill-rule="evenodd"/>
      <path id="Path_74" data-name="Path 74" d="M116.429,10.873h11.309V23.637H112.077a5.715,5.715,0,0,1-5.569-5.818V9.161a5.715,5.715,0,0,1,5.569-5.818h15.662V8.011H113.825a2.5,2.5,0,0,0-2.434,2.542v5.874a2.5,2.5,0,0,0,2.434,2.544h9.031V15.213h-6.427Z" transform="translate(109.013 3.421)" fill-rule="evenodd"/>
      <path id="Path_75" data-name="Path 75" d="M94.077,3.343h4.65L110.245,16.55V3.343h4.65V23.637h-4.65L98.727,10.682V23.637h-4.65Z" transform="translate(96.29 3.421)" fill-rule="evenodd"/>
      <path id="Path_76" data-name="Path 76" d="M26.612,10.873H21.729V23.637H37.391a5.715,5.715,0,0,0,5.569-5.818V9.161a5.715,5.715,0,0,0-5.569-5.818H21.729V8.011H35.643a2.5,2.5,0,0,1,2.434,2.542v5.874a2.5,2.5,0,0,1-2.434,2.544H26.612v-8.1Z" transform="translate(22.24 3.421)" fill-rule="evenodd"/>
      <path id="Path_77" data-name="Path 77" d="M87.823,10.688h13.185v4.4H87.823v4.146h13.185v4.4H83.07V3.343h17.938v4.4H87.823Z" transform="translate(85.024 3.421)" fill-rule="evenodd"/>
      <path id="Path_78" data-name="Path 78" d="M72.062,10.688H90v4.4H76.817v8.547H72.062V10.688Zm4.454-7.345H90v4.4H72.074a4.583,4.583,0,0,1,4.442-4.4" transform="translate(73.757 3.421)" fill-rule="evenodd"/>
      <path id="Path_79" data-name="Path 79" d="M69.349,10.873H80.659V23.637H65a5.715,5.715,0,0,1-5.569-5.818V9.161A5.715,5.715,0,0,1,65,3.343H80.659V8.011H66.745a2.5,2.5,0,0,0-2.434,2.542v5.874a2.5,2.5,0,0,0,2.434,2.544h9.031V15.213H69.349Z" transform="translate(60.826 3.421)" fill-rule="evenodd"/>
      <path id="Path_80" data-name="Path 80" d="M47,3.343h4.65L63.165,16.55V3.343h4.65V23.637h-4.65L51.647,10.682V23.637H47Z" transform="translate(48.103 3.421)" fill-rule="evenodd"/>
      <path id="Path_81" data-name="Path 81" d="M41.678,8.009h6.6a2.5,2.5,0,0,1,2.434,2.544v5.874a2.5,2.5,0,0,1-2.434,2.542h-6.6a2.5,2.5,0,0,1-2.432-2.542V10.553a2.5,2.5,0,0,1,2.432-2.544M39.932,3.343H50.023a5.715,5.715,0,0,1,5.571,5.818v8.659a5.715,5.715,0,0,1-5.571,5.818H39.932a5.714,5.714,0,0,1-5.569-5.818V9.161a5.714,5.714,0,0,1,5.569-5.818" transform="translate(35.171 3.421)" fill-rule="evenodd"/>
    </g>
  </g>
</svg>
