<svg xmlns="http://www.w3.org/2000/svg" width="10.247" height="10.254" viewBox="0 0 10.247 10.254">
  <path id="Path_582881" data-name="Path 582881" d="M6.234.226a4.941,4.941,0,0,1-3.626-1.5A4.941,4.941,0,0,1,1.107-4.9a4.941,4.941,0,0,1,1.5-3.626,4.941,4.941,0,0,1,3.626-1.5,4.933,4.933,0,0,1,3.62,1.5,4.941,4.941,0,0,1,1.5,3.626,4.941,4.941,0,0,1-1.5,3.626A4.933,4.933,0,0,1,6.234.226Zm0-9.652A4.36,4.36,0,0,0,3.035-8.1,4.36,4.36,0,0,0,1.709-4.9a4.349,4.349,0,0,0,1.326,3.2,4.365,4.365,0,0,0,3.2,1.323,4.354,4.354,0,0,0,3.2-1.323,4.354,4.354,0,0,0,1.323-3.2A4.365,4.365,0,0,0,9.43-8.1,4.349,4.349,0,0,0,6.234-9.427ZM8.087-2.249a3.016,3.016,0,0,1-1.7.472,3.052,3.052,0,0,1-2.2-.854A2.845,2.845,0,0,1,3.3-4.771,3.175,3.175,0,0,1,4.211-7.15a3.24,3.24,0,0,1,2.365-.889,3.017,3.017,0,0,1,1.483.362v1.025a2.359,2.359,0,0,0-1.565-.492A2.172,2.172,0,0,0,4.9-6.528a2.215,2.215,0,0,0-.625,1.654,2.132,2.132,0,0,0,.639,1.62,2.26,2.26,0,0,0,1.624.608,2.341,2.341,0,0,0,1.545-.533Z" transform="translate(-1.107 10.028)" fill="#fcfcfc"/>
</svg>
