<svg id="Group_586" data-name="Group 586" xmlns="http://www.w3.org/2000/svg" width="12.545" height="12.937" viewBox="0 0 12.545 12.937">
  <path id="Path_110" data-name="Path 110" d="M60.315,33.5a.111.111,0,0,0-.091.124l1.2,8.427s.023.158.146,0l1.421-1.919a.184.184,0,0,1,.339,0l1.691,2.829s.192.146.293.067l1-.608s.226-.18.057-.373l-1.729-2.819s-.1-.206.169-.216l2.279-.324s.44-.056,0-.293Z" transform="translate(-54.74 -30.115)" fill="#fff"/>
  <path id="Path_111" data-name="Path 111" d="M9.48,2.17V12h9.826V2.17Zm8.792,8.792H10.514V3.2h7.758Z" transform="translate(-9.48 -2.17)" fill="#fff"/>
</svg>
