<svg xmlns="http://www.w3.org/2000/svg" viewBox="0 0 26.84 26.84">
  <defs>
    <style>
      .cls-1 {
        fill: #595657;
      }
    </style>
  </defs>
  <g id="Layer_2" data-name="Layer 2">
    <g id="Layer_1-2" data-name="Layer 1">
      <g id="Layer_2-2" data-name="Layer 2">
        <g id="_01.facebook" data-name=" 01.facebook">
          <path id="Path_148275" data-name="Path 148275" class="cls-1" d="M13.42,0A13.42,13.42,0,1,0,26.84,13.42h0A13.42,13.42,0,0,0,13.42,0Zm3.4,12.15L16.6,14a.34.34,0,0,1-.35.31H14.3v5.55a.25.25,0,0,1-.25.25h-2a.25.25,0,0,1-.25-.25V14.33H10.37A.35.35,0,0,1,10,14V12.11a.35.35,0,0,1,.35-.35h1.46V10A2.92,2.92,0,0,1,14.4,6.72a4.34,4.34,0,0,1,.51,0h1.5a.35.35,0,0,1,.35.35h0V8.64a.35.35,0,0,1-.35.35h-.92c-1,0-1.18.49-1.18,1.2v1.56h2.18a.36.36,0,0,1,.34.36v0Z"/>
        </g>
      </g>
    </g>
  </g>
</svg>
