<svg id="Layer_2" data-name="Layer 2" xmlns="http://www.w3.org/2000/svg" width="42.475" height="42.475" viewBox="0 0 42.475 42.475">
  <g id="_01.facebook" data-name="01.facebook" transform="translate(0 0)">
    <path id="Path_148275" data-name="Path 148275" d="M21.237,0A21.237,21.237,0,1,0,42.475,21.237,21.237,21.237,0,0,0,21.237,0Zm5.382,19.225-.352,2.959a.559.559,0,0,1-.559.5H22.634v8.774a.4.4,0,0,1-.391.4h-3.13a.4.4,0,0,1-.391-.4l.017-8.772H16.411a.559.559,0,0,1-.559-.559V19.167a.559.559,0,0,1,.559-.559h2.311V15.741c0-3.317,1.976-5.122,4.862-5.122h2.367a.559.559,0,0,1,.559.559v2.49a.559.559,0,0,1-.559.559H24.5c-1.57.025-1.867.777-1.867,1.9V18.6h3.443a.559.559,0,0,1,.542.626Z" transform="translate(0 0)" fill="#fff"/>
  </g>
</svg>
