<svg xmlns="http://www.w3.org/2000/svg" xmlns:xlink="http://www.w3.org/1999/xlink" width="325.747" height="325.747" viewBox="0 0 325.747 325.747">
  <defs>
    <linearGradient id="linear-gradient" x1="0.5" x2="0.5" y2="1" gradientUnits="objectBoundingBox">
      <stop offset="0" stop-color="#fff" stop-opacity="0.659"/>
      <stop offset="1" stop-color="gray" stop-opacity="0"/>
    </linearGradient>
  </defs>
  <path id="Path_541" data-name="Path 541" d="M0,162.874A162.874,162.874,0,1,1,162.874,325.747,162.86,162.86,0,0,1,0,162.874M222.511,293.239a143.478,143.478,0,0,1-188.6-67.726,133.573,133.573,0,0,1,40.129-64.549c0,.721.039,1.423.039,2.124A131.382,131.382,0,0,0,222.511,293.239m-59.638-32.372A132.387,132.387,0,0,0,292.186,100.994a143.4,143.4,0,0,1-69.4,192.127,133.932,133.932,0,0,1-59.93-228.027,132.2,132.2,0,0,0-132.2,132.2A134.623,134.623,0,0,0,33.424,224.5a143.366,143.366,0,0,1,258.43-124.206A133.583,133.583,0,0,1,251.687,165c.02-.7-.039-1.4-.039-2.124A131.244,131.244,0,0,0,120.406,31.631a129.143,129.143,0,0,0-17.7,1.169,133.918,133.918,0,0,1,60.164,228.066" fill-rule="evenodd" opacity="0.2" fill="url(#linear-gradient)"/>
</svg>
