<svg xmlns="http://www.w3.org/2000/svg" width="42.475" height="42.475" viewBox="0 0 42.475 42.475">
  <g id="Layer_2" data-name="Layer 2" transform="translate(0)">
    <g id="_05.instagram" data-name="05.instagram" transform="translate(0 0)">
      <circle id="Ellipse_54" data-name="Ellipse 54" cx="3.356" cy="3.356" r="3.356" transform="translate(17.881 17.881)" fill="#fff"/>
      <path id="Path_148276" data-name="Path 148276" d="M58.416,45.65H49.832a4.192,4.192,0,0,0-4.192,4.192v8.582a4.192,4.192,0,0,0,4.192,4.192h8.584a4.192,4.192,0,0,0,4.192-4.192V49.839A4.192,4.192,0,0,0,58.416,45.65ZM54.124,59.625a5.494,5.494,0,1,1,5.491-5.493A5.494,5.494,0,0,1,54.124,59.625ZM59.648,50A1.358,1.358,0,1,1,61,48.64,1.358,1.358,0,0,1,59.648,50Z" transform="translate(-32.886 -32.894)" fill="#fff"/>
      <path id="Path_148277" data-name="Path 148277" d="M21.237,0A21.237,21.237,0,1,0,42.475,21.237,21.237,21.237,0,0,0,21.237,0ZM31.856,25.529a6.332,6.332,0,0,1-6.326,6.326H16.945a6.335,6.335,0,0,1-6.326-6.326V16.945a6.335,6.335,0,0,1,6.326-6.326h8.584a6.335,6.335,0,0,1,6.326,6.326Z" transform="translate(0 0)" fill="#fff"/>
    </g>
  </g>
</svg>
