<svg xmlns="http://www.w3.org/2000/svg" viewBox="0 0 26.84 26.84">
  <defs>
    <style>
      .cls-1 {
        fill: #595657;
      }
    </style>
  </defs>
  <g id="Layer_2" data-name="Layer 2">
    <g id="Layer_1-2" data-name="Layer 1">
      <g id="Layer_2-2" data-name="Layer 2-2">
        <g id="_05.instagram" data-name=" 05.instagram">
          <circle id="Ellipse_54" data-name="Ellipse 54" class="cls-1" cx="13.42" cy="13.42" r="2.12"/>
          <path id="Path_148276" data-name="Path 148276" class="cls-1" d="M16.13,8.06H10.71a2.65,2.65,0,0,0-2.65,2.65h0v5.42a2.65,2.65,0,0,0,2.65,2.65h5.42a2.64,2.64,0,0,0,2.65-2.65V10.71a2.65,2.65,0,0,0-2.65-2.65Zm-2.71,8.83a3.47,3.47,0,1,1,3.47-3.47h0A3.47,3.47,0,0,1,13.42,16.89Zm3.49-6.08a.86.86,0,1,1,.86-.86h0A.85.85,0,0,1,16.91,10.81Z"/>
          <path id="Path_148277" data-name="Path 148277" class="cls-1" d="M13.42,0A13.42,13.42,0,1,0,26.84,13.42h0A13.42,13.42,0,0,0,13.42,0Zm6.71,16.13a4,4,0,0,1-4,4H10.71a4,4,0,0,1-4-4V10.71a4,4,0,0,1,4-4h5.42a4,4,0,0,1,4,4Z"/>
        </g>
      </g>
    </g>
  </g>
</svg>
