<svg xmlns="http://www.w3.org/2000/svg" viewBox="0 0 26.84 26.84">
  <defs>
    <style>
      .cls-1 {
        fill: #595657;
      }
    </style>
  </defs>
  <g id="Layer_2" data-name="Layer 2">
    <g id="Layer_1-2" data-name="Layer 1">
      <path id="linkedin" class="cls-1" d="M13.42,0A13.42,13.42,0,1,0,26.84,13.42h0A13.42,13.42,0,0,0,13.42,0ZM9.52,20.29H6.25V10.46H9.52ZM7.89,9.11h0a1.7,1.7,0,0,1,0-3.4h0a1.7,1.7,0,0,1,0,3.4ZM21.31,20.29H18V15c0-1.32-.47-2.22-1.66-2.22A1.78,1.78,0,0,0,14.71,14a2.18,2.18,0,0,0-.11.8v5.49H11.33s0-8.91,0-9.83H14.6v1.39a3.24,3.24,0,0,1,3-1.62c2.15,0,3.76,1.4,3.76,4.42Z"/>
    </g>
  </g>
</svg>
