<svg xmlns="http://www.w3.org/2000/svg" width="42.475" height="42.475" viewBox="0 0 42.475 42.475">
  <path id="tiktok" d="M21.237,0A21.237,21.237,0,1,0,42.475,21.237,21.24,21.24,0,0,0,21.237,0ZM31.892,16.249v2.876a10.034,10.034,0,0,1-6.14-2.087l.02,8.851a7.414,7.414,0,0,1-2.224,5.276,7.569,7.569,0,0,1-4.228,2.115,7.794,7.794,0,0,1-1.142.084,7.594,7.594,0,0,1-4.655-1.574,7.722,7.722,0,0,1-.715-.625A7.442,7.442,0,0,1,12.471,20.9a7.594,7.594,0,0,1,5.706-2.552,7.8,7.8,0,0,1,1.142.084v4.021a3.58,3.58,0,1,0,2.462,3.4l0-5.927V9.11h3.96a6.13,6.13,0,0,0,6.134,6.073h.011v1.067Z" fill="#fff"/>
</svg>
