<svg xmlns="http://www.w3.org/2000/svg" viewBox="0 0 26.84 26.84">
  <defs>
    <style>
      .cls-1 {
        fill: #595657;
      }
    </style>
  </defs>
  <g id="Layer_2" data-name="Layer 2">
    <g id="Layer_1-2" data-name="Layer 1">
      <path id="tiktok" class="cls-1" d="M13.42,0A13.42,13.42,0,1,0,26.84,13.42h0A13.42,13.42,0,0,0,13.42,0Zm6.73,10.27v1.82a6.42,6.42,0,0,1-3.88-1.32l0,5.59a4.67,4.67,0,0,1-1.41,3.34A4.77,4.77,0,0,1,12.21,21a5.81,5.81,0,0,1-.72.05,4.79,4.79,0,0,1-2.94-1,5.58,5.58,0,0,1-.46-.39,4.71,4.71,0,0,1-.21-6.49,4.83,4.83,0,0,1,3.61-1.61,5.81,5.81,0,0,1,.72.05v2.54a2.26,2.26,0,1,0,1.44,2.86,2.16,2.16,0,0,0,.12-.71V5.76h2.5A3.87,3.87,0,0,0,20.15,9.6h0v.67Z"/>
    </g>
  </g>
</svg>
