<svg xmlns="http://www.w3.org/2000/svg" viewBox="0 0 26.84 26.84">
  <defs>
    <style>
      .cls-1 {
        fill: #595657;
      }
    </style>
  </defs>
  <g id="Layer_2" data-name="Layer 2">
    <g id="Layer_1-2" data-name="Layer 1">
      <g id="Layer_2-3" data-name="Layer 2-3">
        <g id="_04.youtube" data-name=" 04.youtube">
          <path id="Path_148280" data-name="Path 148280" class="cls-1" d="M11.82,10.85,16,13.42,11.82,16Z"/>
          <path id="Path_148281" data-name="Path 148281" class="cls-1" d="M13.42,0A13.42,13.42,0,1,0,26.84,13.42h0A13.42,13.42,0,0,0,13.42,0Zm6.4,16.65a2.37,2.37,0,0,1-2,1.44,40.91,40.91,0,0,1-8.85,0,2.37,2.37,0,0,1-2-1.44,16.72,16.72,0,0,1,0-6.46A2.37,2.37,0,0,1,9,8.75a42.13,42.13,0,0,1,8.84,0,2.42,2.42,0,0,1,2,1.44,16.92,16.92,0,0,1,0,6.46Z"/>
        </g>
      </g>
    </g>
  </g>
</svg>
