<svg xmlns="http://www.w3.org/2000/svg" width="42.475" height="42.475" viewBox="0 0 42.475 42.475">
  <g id="Layer_2" data-name="Layer 2" transform="translate(0)">
    <g id="_04.youtube" data-name="04.youtube" transform="translate(0 0)">
      <path id="Path_148280" data-name="Path 148280" d="M66.91,61.44l6.625,4.069L66.91,69.58Z" transform="translate(-48.213 -44.271)" fill="#fff"/>
      <path id="Path_148281" data-name="Path 148281" d="M21.237,0A21.237,21.237,0,1,0,42.475,21.237,21.237,21.237,0,0,0,21.237,0ZM31.359,26.348a3.778,3.778,0,0,1-3.124,2.28,66.177,66.177,0,0,1-13.994,0,3.778,3.778,0,0,1-3.124-2.28,26.53,26.53,0,0,1,0-10.219,3.754,3.754,0,0,1,3.135-2.28,66.177,66.177,0,0,1,13.994,0,3.773,3.773,0,0,1,3.124,2.28,26.53,26.53,0,0,1-.011,10.219Z" transform="translate(0 0)" fill="#fff"/>
    </g>
  </g>
</svg>
