<svg xmlns="http://www.w3.org/2000/svg" width="19.69" height="21.5" viewBox="0 0 19.69 21.5">
  <g id="Icon" transform="translate(-2.155 -1.25)">
    <path id="Path_582430" data-name="Path 582430" d="M19.375,14.72s2.47,2.524,2.47,5.03a3,3,0,0,1-6,0c0-2.506,2.469-5.03,2.469-5.03a.75.75,0,0,1,1.061,0Z" fill="#fff" fill-rule="evenodd"/>
    <path id="Path_582431" data-name="Path 582431" d="M18.456,12.934,12.8,18.591a3.75,3.75,0,0,1-5.3,0L3.254,14.349a3.749,3.749,0,0,1,0-5.3L9.617,2.682a.75.75,0,0,1,1.061,0l7.778,7.777a1.751,1.751,0,0,1,0,2.475Zm-1.061-1.06a.25.25,0,0,0,0-.354L10.148,4.273,4.315,10.106a2.248,2.248,0,0,0,0,3.182L8.557,17.53a2.25,2.25,0,0,0,3.182,0Z" fill="#fff" fill-rule="evenodd"/>
    <path id="Path_582432" data-name="Path 582432" d="M11.89,3.894a.75.75,0,0,1-1.061,1.061L8.405,2.53A.75.75,0,1,1,9.466,1.47Z" fill="#fff" fill-rule="evenodd"/>
    <path id="Path_582433" data-name="Path 582433" d="M2.9,10.947H18.218a.75.75,0,0,1,.75.75,1.744,1.744,0,0,1-.512,1.237L12.8,18.591a3.75,3.75,0,0,1-5.3,0L3.254,14.349a3.755,3.755,0,0,1-1.1-2.652.75.75,0,0,1,.75-.75Z" fill="#fff" fill-rule="evenodd"/>
  </g>
</svg>
