<svg xmlns="http://www.w3.org/2000/svg" width="19.436" height="19.436" viewBox="0 0 19.436 19.436">
  <g id="grid" transform="translate(21.186 -2) rotate(90)">
    <path id="Path_582426" data-name="Path 582426" d="M3.388,25.774H6.165a1.388,1.388,0,0,0,1.388-1.388V18.138A1.388,1.388,0,0,0,6.165,16.75H3.388A1.388,1.388,0,0,0,2,18.138v6.247A1.388,1.388,0,0,0,3.388,25.774Z" transform="translate(0 -4.588)" fill="#fff"/>
    <path id="Path_582427" data-name="Path 582427" d="M3.388,10.774h9.718a1.388,1.388,0,0,0,1.388-1.388V3.138A1.388,1.388,0,0,0,13.106,1.75H3.388A1.388,1.388,0,0,0,2,3.138V9.385A1.388,1.388,0,0,0,3.388,10.774Z" fill="#fff"/>
    <path id="Path_582428" data-name="Path 582428" d="M26.165,1.75H23.388A1.388,1.388,0,0,0,22,3.138V9.385a1.388,1.388,0,0,0,1.388,1.388h2.777a1.388,1.388,0,0,0,1.388-1.388V3.138A1.388,1.388,0,0,0,26.165,1.75Z" transform="translate(-6.117)" fill="#fff"/>
    <path id="Path_582429" data-name="Path 582429" d="M23.106,16.75H13.388A1.388,1.388,0,0,0,12,18.138v6.247a1.388,1.388,0,0,0,1.388,1.388h9.718a1.388,1.388,0,0,0,1.388-1.388V18.138A1.388,1.388,0,0,0,23.106,16.75Z" transform="translate(-3.059 -4.588)" fill="#fff"/>
  </g>
</svg>
