<svg xmlns="http://www.w3.org/2000/svg" width="23.5" height="23.5" viewBox="0 0 23.5 23.5">
  <g id="tire" transform="translate(-1 -1)">
    <path id="Path_582434" data-name="Path 582434" d="M12.75,1A11.75,11.75,0,1,0,24.5,12.75,11.785,11.785,0,0,0,12.75,1ZM9.764,4.28c.783-1.126,3.133-1.077,6.071-.539a11.039,11.039,0,0,1-4.259,5.581C9.959,7.511,9.323,5.8,9.764,4.28ZM10.89,14.317a.666.666,0,1,1,.147.93A.686.686,0,0,1,10.89,14.317ZM10.449,12.6a.666.666,0,1,1,.832-.441A.681.681,0,0,1,10.449,12.6Zm1.322,0a1.2,1.2,0,1,1,2.4,0,1.191,1.191,0,0,1-1.175,1.175A1.144,1.144,0,0,1,11.771,12.6Zm.588-2.2a.636.636,0,1,1,.636.636A.648.648,0,0,1,12.358,10.4Zm1.518,3.917a.666.666,0,1,1-.147.93A.686.686,0,0,1,13.876,14.317Zm.783-1.958a.666.666,0,1,1,.832.441A.659.659,0,0,1,14.659,12.358ZM6.532,5.7a10.881,10.881,0,0,1,2.693,6.511c-2.4.49-4.161.147-5.288-.979C3.35,10.008,4.574,8,6.532,5.7Zm.539,14.051c-1.371-.1-2.5-2.154-3.525-4.994a11.107,11.107,0,0,1,7,.93C9.715,17.989,8.589,19.359,7.071,19.751Zm8.91,1.567c-.783,1.126-3.133,1.077-6.071.539a11.038,11.038,0,0,1,4.259-5.581C15.785,18.086,16.373,19.8,15.981,21.318Zm3.231-1.42a10.881,10.881,0,0,1-2.693-6.511c2.4-.49,4.161-.147,5.287.979C22.395,15.59,21.171,17.6,19.212,19.9ZM15.2,9.959c.783-2.35,1.958-3.721,3.476-4.113,1.371.1,2.5,2.154,3.525,4.994A11.005,11.005,0,0,1,15.2,9.959Z" fill="#fff"/>
  </g>
</svg>
