<svg xmlns="http://www.w3.org/2000/svg" xmlns:xlink="http://www.w3.org/1999/xlink" width="56.525" height="84.582" viewBox="0 0 56.525 84.582">
  <defs>
    <linearGradient id="linear-gradient" y1="0.441" x2="0.703" y2="0.434" gradientUnits="objectBoundingBox">
      <stop offset="0" stop-color="#fcfcfc"/>
      <stop offset="1" stop-color="#fff" stop-opacity="0.271"/>
    </linearGradient>
  </defs>
  <path id="Path_582846" data-name="Path 582846" d="M2.546,11.624l9.283-2.166q2.682,16.71,18.876,16.71,9.283,0,14.131-4.848,4.642-4.642,4.642-12.894,0-6.808-4.539-10.624Q39.679-6.633,28.952-6.633h-7.53v-7.324h5.054q10.418,0,15.472-4.229Q46.487-22,46.487-29.12q0-6.911-3.713-10.624-3.92-3.92-11.759-3.92-7.736,0-12.068,3.92-4.229,3.816-5.57,11.862L4.3-30.048q2.269-10.005,8.768-15.266,7.014-5.673,18.257-5.673,12.068,0,18.773,6.292,6.086,5.673,6.086,15.06A18.218,18.218,0,0,1,52.16-17.773a20.371,20.371,0,0,1-11.449,6.808v.1q8.974,1.444,13.925,7.53A19.142,19.142,0,0,1,59.071,9.252q0,11.037-7.427,17.638-7.53,6.7-20.733,6.7Q7.5,33.595,2.546,11.624Z" transform="translate(-2.546 50.987)" opacity="0.38" fill="url(#linear-gradient)"/>
</svg>
