<svg xmlns="http://www.w3.org/2000/svg" xmlns:xlink="http://www.w3.org/1999/xlink" width="56.003" height="84.582" viewBox="0 0 56.003 84.582">
  <defs>
    <linearGradient id="linear-gradient" y1="0.441" x2="0.703" y2="0.434" gradientUnits="objectBoundingBox">
      <stop offset="0" stop-color="#fcfcfc"/>
      <stop offset="1" stop-color="#fff" stop-opacity="0.271"/>
    </linearGradient>
  </defs>
  <path id="Path_582845" data-name="Path 582845" d="M14.336,8.134H59.243V16.09h-56V9.914Q11.719-6.939,29.828-20.129q11.933-8.9,16.016-14.341A16.689,16.689,0,0,0,49.3-44.728q0-7.432-4.187-11.515-4.606-4.5-13.608-4.5-14.341.1-18.319,16.539L4.5-47.345q6.49-21.354,29-21.145,12.038,0,19.051,6.8a21.074,21.074,0,0,1,6.49,15.806,24.566,24.566,0,0,1-3.978,14.131Q50.764-25.362,38.2-16.465,21.873-4.846,14.336,8.134Z" transform="translate(-3.24 68.492)" opacity="0.38" fill="url(#linear-gradient)"/>
</svg>
