<svg xmlns="http://www.w3.org/2000/svg" width="18.29" height="13.412" viewBox="0 0 18.29 13.412">
  <g id="fast-forward_2_" data-name="fast-forward (2)" transform="translate(0 -64.013)">
    <g id="Group_534" data-name="Group 534" transform="translate(7.925 64.013)">
      <g id="Group_533" data-name="Group 533" transform="translate(0 0)">
        <path id="Path_520" data-name="Path 520" d="M218.208,70.312l-5.487-6.1a.61.61,0,0,0-.454-.2H208.61a.609.609,0,0,0-.454,1.017l5.12,5.689-5.12,5.688a.61.61,0,0,0,.454,1.018h3.658a.618.618,0,0,0,.454-.2l5.487-6.1A.61.61,0,0,0,218.208,70.312Z" transform="translate(-208 -64.013)" fill="#de1222"/>
      </g>
    </g>
    <g id="Group_536" data-name="Group 536" transform="translate(0 64.013)">
      <g id="Group_535" data-name="Group 535" transform="translate(0 0)">
        <path id="Path_521" data-name="Path 521" d="M10.208,70.312l-5.487-6.1a.61.61,0,0,0-.454-.2H.61A.609.609,0,0,0,.157,65.03l5.12,5.689L.157,76.407A.61.61,0,0,0,.61,77.425H4.268a.618.618,0,0,0,.454-.2l5.487-6.1A.61.61,0,0,0,10.208,70.312Z" transform="translate(0 -64.013)" fill="#de1222"/>
      </g>
    </g>
  </g>
</svg>
